# xmcd CD database file
#
# Track frame offsets:
#	150
#	40931
#	74271
#	115554
#
# Disc length: 2472 seconds
#
# Revision: 1
# Processed by: cddbd v1.4PL0 Copyright (c) Steve Scherf et al.
# Submitted via: CDex 1.51
#
DISCID=2c09a604
DTITLE=Tony O Connoor - Zodiac Collection Vergo 
DYEAR=2001
DGENRE=New Age
TTITLE0=Vergo 1
TTITLE1=Vergo 2
TTITLE2=Vergo 3
TTITLE3=Vergo 4
EXTD=YEAR: 2001
EXTT0=
EXTT1=
EXTT2=
EXTT3=
PLAYORDER=
